<svg width="18" height="18" viewBox="0 0 18 18" fill="none" xmlns="http://www.w3.org/2000/svg">
<path fill-rule="evenodd" clip-rule="evenodd" d="M16.9845 9.4995C16.5278 9.6405 16.3185 10.1047 16.9613 10.191C17.5883 10.275 17.9062 10.683 17.9062 11.1067C17.9062 11.5912 17.49 12.0968 16.6403 12.1643C16.119 12.2055 15.9892 12.6315 16.617 12.7732C17.1435 12.8925 17.4405 13.2622 17.4405 13.659C17.4405 14.1308 17.022 14.6407 16.071 14.8162C15.4972 14.922 15.4395 15.4845 16.0478 15.531C16.5638 15.5708 16.7677 15.7492 16.7677 16.0005C16.7677 16.6987 15.5273 18 13.1287 18C11.3864 18 10.1579 17.5165 8.84038 16.998C7.79861 16.588 6.70117 16.1561 5.25 15.924V7.7655C7.03125 7.1145 8.5995 5.78325 9.51525 2.60175C9.5541 2.46694 9.59141 2.33085 9.62855 2.19534C9.93483 1.07795 10.2303 0 11.2965 0C13.0785 0 13.242 3.84375 12.5625 6.58575C13.5472 7.101 15.3757 7.287 16.2967 7.2495C17.625 7.1955 18 7.863 18 8.367C18 9.1245 17.3752 9.3795 16.9845 9.4995ZM0 16.5H3.75V7.5H0V16.5Z" fill="white"/>
</svg>
