<svg width="24" height="24" viewBox="0 0 24 24" fill="none" xmlns="http://www.w3.org/2000/svg">
<path fill-rule="evenodd" clip-rule="evenodd" d="M20 1C20 0.448 19.553 0 19 0C18.447 0 18 0.448 18 1V3C18 3.552 18.447 4 19 4C19.553 4 20 3.552 20 3V1ZM24 2V24H0V2H3V3C3 4.103 3.897 5 5 5C6.103 5 7 4.103 7 3V2H17V3C17 4.103 17.897 5 19 5C20.103 5 21 4.103 21 3V2H24ZM10 10H14V14H10V10ZM20 20V16H16V20H20ZM20 10H16V14H20V10ZM4 16H8V20H4V16ZM14 16H10V20H14V16ZM4 10H8V14H4V10ZM2 8H22V22H2V8ZM5 4C5.553 4 6 3.552 6 3V1C6 0.448 5.553 0 5 0C4.447 0 4 0.448 4 1V3C4 3.552 4.447 4 5 4Z" fill="#CACACA"/>
</svg>
