<svg width="20" height="24" viewBox="0 0 20 24" fill="none" xmlns="http://www.w3.org/2000/svg">
<path fill-rule="evenodd" clip-rule="evenodd" d="M11.233 0C14.682 0 14.238 5.531 13.43 8.814C14.536 9.28 16.196 9.506 17.406 9.557C18.832 9.618 20 10.415 20 12.064C20 13.064 19.014 18.437 18.514 20.314C17.8 23.003 16.043 24 13.505 24C11.222 24 9.426 23.383 8.169 22.842C5.584 21.729 3.503 21 0 21V11.072C3.086 10.671 6.429 10.117 8.4 3.329C8.883 1.668 9.372 0 11.233 0ZM15.754 13.302L17.148 13.135C18.224 13.005 18.254 11.609 17.199 11.55C14.45 11.396 12.14 10.537 11.079 9.994C11.1237 9.81282 11.169 9.63199 11.2144 9.45107C11.6064 7.88746 12 6.31722 12 4.461C12 1.956 11.219 0.795 10.321 3.887C8.329 10.746 5.263 12.251 2 13V19C4.47132 19.0706 6.63321 20.0032 8.82574 20.949C8.86981 20.968 8.9139 20.987 8.958 21.006C10.689 21.751 13.807 22.501 15.374 21.62C16.669 20.784 16.488 19.885 15.666 19.959L14.895 19.99C14.08 20.084 13.975 18.921 14.786 18.849C14.786 18.849 16.107 18.787 16.531 18.734C17.507 18.612 17.559 17.127 16.491 17.183C16.034 17.207 15.348 17.224 15.348 17.224C14.551 17.255 14.473 16.146 15.207 16.052L16.968 15.953C18.015 15.859 18.046 14.344 16.964 14.39C16.096 14.427 15.895 14.417 15.895 14.417C15.145 14.411 15.754 13.302 15.754 13.302Z" fill="#E64D47"/>
</svg>
