<svg width="58" height="34" viewBox="0 0 58 34" fill="none" xmlns="http://www.w3.org/2000/svg">
<path fill-rule="evenodd" clip-rule="evenodd" d="M58 18.3649L49.5803 20.5287L49.0607 18.5324C47.9877 18.9841 45.2013 20.1669 44.5029 20.5554C44.805 21.25 44.9524 22.0077 44.8775 22.7654C44.6866 24.7787 43.1907 26.282 41.3564 26.656C40.7426 27.948 39.585 28.8101 38.251 29.0894C37.6613 30.3329 36.5062 31.2509 35.119 31.5423C34.3336 33.1646 32.7724 34 31.0735 34C29.8289 34 28.6472 33.5556 27.7965 32.6959C25.5562 33.677 23.2 32.5793 22.4025 30.6C20.9622 30.4324 19.7273 29.4999 19.1835 28.1787C17.7359 28.0063 16.4913 27.0664 15.9452 25.7429C13.0717 25.4077 11.4792 22.2457 13.0476 19.6836C12.5063 19.5476 9.62317 18.9866 8.8595 18.8409L8.41967 20.5287L0 18.3649L4.669 0L13.1902 2.16143L12.7721 3.76914C13.4826 3.72786 14.5193 3.60643 15.399 3.27857C15.9937 3.05833 16.5797 2.78538 17.17 2.51048C19.7623 1.30306 22.4357 0.0578446 26.2861 3.07457L27.4727 1.734C28.4272 0.650857 29.6743 0 31.1049 0C32.1586 0 33.3041 0.391 34.5076 1.01514C34.7789 1.1575 35.0404 1.2954 35.2934 1.42876C39.3561 3.5705 41.1976 4.54126 45.2835 3.99257L44.8098 2.16386L53.331 0L58 18.3649ZM54.4717 16.2641L51.2382 3.53843L48.3551 4.26943L51.6562 16.9879L54.4717 16.2641ZM6.34375 16.9879L3.52833 16.2641L6.76183 3.53843L9.64492 4.26943L6.34375 16.9879ZM15.2516 20.7327C14.645 21.454 14.7344 22.4837 15.4449 23.0204C16.1554 23.5571 17.226 23.4066 17.8302 22.6804L19.3019 20.8663C19.9061 20.1377 19.8215 19.1153 19.1086 18.5737C18.3932 18.0321 17.3275 18.19 16.7257 18.9137L15.2516 20.7327ZM18.6736 25.449C17.9583 24.905 17.8592 23.9044 18.4658 23.1759L19.9544 21.3447C20.5586 20.6161 21.6219 20.4631 22.3324 20.9999C23.0453 21.539 23.1299 22.5687 22.5306 23.29L21.0395 25.1236C20.4353 25.8546 19.3913 25.9881 18.6736 25.449ZM21.7041 25.5826C21.0975 26.3111 21.1893 27.3384 21.9023 27.8776C22.6127 28.4119 23.6785 28.2637 24.2827 27.5351L25.752 25.721C26.3586 24.9949 26.2716 23.97 25.5587 23.4284C24.8433 22.8893 23.7824 23.0471 23.1758 23.7733L21.7041 25.5826ZM28.9831 28.1399L27.5089 29.9613C26.9023 30.6947 25.839 30.8429 25.1261 30.3061C24.4132 29.767 24.3262 28.7397 24.9279 28.016L26.4069 26.1921C27.0159 25.4684 28.0817 25.313 28.7922 25.8546C29.5075 26.3913 29.5945 27.4186 28.9831 28.1399ZM31.0735 31.1707C31.4336 31.1707 31.7864 31.059 32.0764 30.8356C32.7652 30.294 32.8449 29.3007 32.2383 28.6086L31.6583 28.0937C31.5061 28.6717 31.2402 29.2181 30.856 29.6723L29.9908 30.7433C30.3123 31.0031 30.6868 31.1707 31.0735 31.1707ZM41.4362 23.5086C40.7378 24.0477 39.6986 23.9166 39.0993 23.2317L34.4013 19.1784C34.0146 18.8433 33.5071 19.4383 33.8986 19.7661L38.4806 23.7199C39.0799 24.412 39.005 25.4101 38.3162 25.9444C37.6493 26.4739 36.5956 26.384 35.9745 25.6676L32.3713 22.491C31.9822 22.1534 31.4771 22.7387 31.8565 23.0763L35.3776 26.1824C35.9793 26.8746 35.8875 27.8484 35.1963 28.39C34.5197 28.9194 33.4853 28.8369 32.8763 28.1326L31.7888 27.1563L31.784 26.6099C31.5689 24.7156 30.0658 23.3264 28.2822 23.1273C27.7409 21.7989 26.5012 20.8687 25.056 20.7036C24.5292 19.4043 23.3015 18.445 21.8322 18.275C20.8727 15.9071 17.8785 15.0353 15.6721 16.626C14.645 16.303 11.1964 15.5331 9.78992 15.2563L11.8103 7.47514C13.7025 7.38529 15.9041 7.15457 18.8234 5.763C20.9114 4.76486 21.9119 4.30829 23.8187 5.73143C22.5934 6.96271 21.3368 8.05071 20.0438 8.81086C18.8838 9.49086 18.3812 10.8436 18.7606 12.257C19.198 13.8793 20.8293 15.5186 23.4972 15.5186C26.1653 15.5186 30.5636 13.056 31.4215 11.8709C34.9788 15.249 38.4347 18.3891 41.4338 21.0897C42.2796 22.0369 42.1225 22.9743 41.4362 23.5086ZM34.4738 9.71429C36.1147 11.3657 40.6846 15.5186 42.7073 17.3473C43.7103 16.7839 46.9075 15.3729 48.1158 14.8896L46.2332 7.63543C40.4513 8.25986 38.2908 7.11998 33.6766 4.68554C33.4096 4.54467 33.1344 4.39946 32.8498 4.25C31.61 3.61129 30.7714 3.48014 30.1914 4.14314C27.8134 6.86314 25.2832 9.75071 22.4774 11.5819C23.8622 12.6941 27.3567 10.4696 28.7414 9.34757C29.3456 8.85943 30.2833 8.211 31.4674 8.211C32.8038 8.211 33.7753 9.01486 34.4738 9.71429Z" fill="#E64D47"/>
</svg>
