<svg width="36" height="45" viewBox="0 0 36 45" fill="none" xmlns="http://www.w3.org/2000/svg">
<path fill-rule="evenodd" clip-rule="evenodd" d="M0 0H15.6884L35.1909 19.2825L19.4608 34.4137L0 15.1088V0ZM29.7909 19.2469L14.1196 3.75H3.78947V13.5562L19.5006 29.145L29.7909 19.2469ZM12.4295 12.2981C11.3211 13.395 9.52105 13.395 8.41263 12.2981C7.30232 11.2031 7.30232 9.42375 8.41263 8.32687C9.52105 7.23 11.3211 7.23 12.4295 8.32687C13.5398 9.42188 13.5398 11.2013 12.4295 12.2981ZM36 28.8281L33.2905 26.1863L19.6086 39.6394L0 20.3438V25.6556L19.5385 45L36 28.8281Z" fill="#E64D47"/>
</svg>
