<svg width="48" height="44" viewBox="0 0 48 44" fill="none" xmlns="http://www.w3.org/2000/svg">
<path fill-rule="evenodd" clip-rule="evenodd" d="M8.11539 8.5683C10.7155 9.19429 36.3005 16.0961 46.5169 18.824C47.411 19.086 47.923 19.792 47.993 20.578C48.011 20.778 47.993 20.974 47.955 21.174C46.2289 28.3318 44.1428 35.4036 42.2347 42.5194C41.9687 43.4194 41.2547 43.9233 40.4787 43.9913C40.2767 44.0113 40.0827 43.9953 39.8827 43.9573C27.0041 40.8554 14.2816 37.1215 1.48312 33.7016C0.571084 33.4336 0.0750645 32.7176 0.00706177 31.9477C-0.0109389 31.7477 0.00706177 31.5497 0.0430632 31.3537C1.77113 24.1919 3.85722 17.1201 5.76329 10.0063C6.0773 8.95629 7.02534 8.36631 8.11539 8.5683ZM4.45124 30.3537L38.8846 39.5555L43.5468 22.1719C33.9764 19.614 9.11543 12.9742 9.11543 12.9742C7.55936 18.766 6.0053 24.5619 4.45124 30.3537ZM36.7485 37.3115L37.2645 35.3856L31.8303 33.9516L31.3123 35.8816L36.7485 37.3115ZM26.7101 34.6616L28.6422 35.1856L29.5302 31.8697L27.6002 31.3457L26.7101 34.6616ZM38.1266 32.0057L38.6446 30.0757L33.2084 28.6418L32.6884 30.5717L38.1266 32.0057ZM12.2275 24.9279L16.5797 23.1899L12.5796 19.19L13.9576 18.638L20.7199 21.534L24.17 20.156C25.0821 19.786 26.5161 20.02 26.7921 20.708L26.8381 21.068C26.7821 21.7439 26.0321 22.6079 25.2741 22.9159L21.8239 24.2919L18.9258 31.0497L17.5438 31.5997L17.6838 25.9458L13.3296 27.6838L12.3016 29.6957L11.3335 30.0797L11.2595 26.9098L9.12943 24.5659L10.0935 24.1799L12.2275 24.9279ZM28.1182 29.4117L30.0503 29.9357L31.0563 26.1858L29.1222 25.6638L28.1182 29.4117ZM39.0166 28.5438L39.5346 26.6118L34.0964 25.1799L33.5804 27.1098L39.0166 28.5438ZM39.9467 25.0079L40.4647 23.0779L35.0285 21.6439L34.5104 23.5759L39.9467 25.0079ZM29.6402 23.7319L31.5743 24.2539L32.4624 20.938L30.5303 20.416L29.6402 23.7319ZM14.3576 6.74235C22.876 4.49241 31.4243 2.34247 39.9347 0.0685347C40.2207 -0.00146341 40.3507 -0.00146341 40.5327 0.000536535C41.3867 0.056535 42.0627 0.540522 42.3568 1.3825C43.7128 5.97637 44.9169 10.6102 46.1169 15.2441L41.6047 14.0362L39.0386 4.44842L22.402 8.89429L14.3576 6.74235Z" fill="#E64D47"/>
</svg>
